<?xml version="1.0" standalone="no"?>
<!DOCTYPE svg PUBLIC "-//W3C//DTD SVG 20010904//EN"
 "http://www.w3.org/TR/2001/REC-SVG-20010904/DTD/svg10.dtd">
<svg version="1.0" xmlns="http://www.w3.org/2000/svg"
 width="640.000000pt" height="640.000000pt" viewBox="0 0 640.000000 640.000000"
 preserveAspectRatio="xMidYMid meet">
<metadata>
Created by potrace 1.14, written by Peter Selinger 2001-2017
</metadata>
<g transform="translate(0.000000,640.000000) scale(0.100000,-0.100000)"
fill="#000000" stroke="none">
<path d="M1958 5658 c-2 -4 -16 -9 -33 -10 -16 -1 -33 -6 -36 -11 -3 -4 -12
-9 -20 -10 -30 -5 -78 -30 -73 -38 3 -5 -4 -9 -16 -9 -12 0 -19 -4 -16 -8 3
-5 -8 -16 -24 -26 -29 -17 -100 -112 -100 -135 0 -6 -5 -11 -12 -11 -6 0 -9
-3 -5 -6 3 -3 -3 -26 -13 -50 -11 -24 -15 -44 -9 -44 6 0 7 -5 3 -11 -10 -17
-12 -149 -2 -149 4 0 8 -10 8 -23 0 -13 5 -28 12 -35 7 -7 8 -12 4 -12 -4 0 4
-20 18 -44 14 -24 22 -46 19 -50 -3 -3 -1 -6 6 -6 7 0 19 -7 27 -15 9 -8 13
-15 9 -15 -3 0 5 -10 19 -22 46 -43 66 -58 76 -58 5 0 13 -6 17 -12 4 -7 15
-13 23 -13 14 0 34 -56 45 -120 2 -11 4 -20 5 -20 2 0 9 -24 16 -60 3 -16 8
-37 11 -45 3 -8 8 -24 9 -35 2 -11 6 -36 10 -55 3 -19 6 -36 6 -37 -1 -2 4
-17 10 -35 5 -18 11 -49 13 -68 2 -19 6 -46 9 -60 8 -34 18 -99 22 -135 1 -16
3 -30 4 -30 4 0 11 -74 13 -127 1 -32 4 -58 7 -58 6 0 10 -46 14 -166 1 -38 6
-75 9 -81 4 -7 2 -15 -4 -19 -8 -5 -7 -9 2 -14 10 -7 10 -12 0 -23 -7 -10 -8
-17 -2 -21 5 -4 9 -24 8 -46 -2 -22 2 -42 8 -44 6 -3 6 -5 0 -5 -6 -1 -9 -49
-8 -128 2 -127 9 -150 41 -138 6 2 12 0 12 -5 0 -6 10 -10 23 -10 13 0 27 -3
31 -7 6 -7 24 -11 59 -15 9 -1 17 -6 17 -11 0 -5 9 -7 20 -4 11 3 20 0 20 -6
0 -6 3 -7 7 -4 3 4 12 2 20 -4 7 -6 13 -9 13 -6 0 3 15 0 34 -8 18 -8 36 -12
39 -9 3 3 16 0 29 -7 12 -7 31 -14 41 -16 10 -2 47 -12 83 -24 35 -11 70 -22
77 -24 65 -14 77 -18 77 -24 0 -4 14 -8 32 -9 17 -2 36 -6 42 -10 6 -5 18 -8
26 -7 8 0 18 -3 21 -8 4 -5 20 -10 36 -12 16 -1 40 -8 54 -15 13 -7 25 -13 27
-12 2 2 11 1 27 -3 6 -1 16 -3 23 -3 7 -1 11 -6 8 -11 -3 -4 6 -6 19 -3 14 2
25 0 25 -5 0 -5 12 -10 26 -11 39 -3 95 -76 79 -103 -4 -5 2 -6 11 -2 13 5 15
3 9 -7 -5 -8 -4 -11 3 -6 7 4 8 17 2 35 -6 21 -5 28 5 27 14 -2 45 -31 45 -41
0 -10 177 -185 187 -185 5 0 15 -9 23 -20 8 -11 18 -20 23 -20 4 0 18 -9 30
-21 12 -12 34 -26 50 -31 15 -6 27 -14 27 -19 0 -14 46 -11 48 4 9 75 15 103
25 109 8 5 8 8 1 8 -12 0 -12 29 0 48 4 6 3 12 -1 12 -8 0 -12 17 -14 62 0 10
-4 20 -10 23 -5 4 -9 15 -9 26 0 10 -5 19 -11 19 -5 0 -7 5 -4 10 4 6 1 18 -6
26 -7 9 -14 23 -16 32 -1 9 -9 22 -18 28 -9 7 -15 14 -14 16 4 7 -38 67 -44
61 -4 -3 -7 1 -7 10 0 10 -5 17 -12 17 -6 0 -9 2 -6 5 8 8 -65 81 -77 77 -5
-2 -7 -1 -3 3 8 8 -23 46 -33 39 -4 -2 -10 5 -14 16 -3 11 -10 20 -13 20 -4 0
-21 12 -39 28 -17 15 -43 36 -58 47 -16 11 -34 26 -41 33 -7 6 -17 12 -23 12
-6 0 -11 5 -11 10 0 6 -5 10 -11 10 -6 0 -22 9 -36 20 -14 11 -30 20 -34 20
-11 0 -6 -151 6 -169 6 -10 4 -12 -4 -6 -10 6 -11 3 -2 -12 6 -11 7 -23 4 -27
-3 -3 -2 -6 4 -6 6 0 9 -13 7 -30 -2 -16 1 -32 6 -35 6 -3 10 -17 10 -31 0
-13 4 -24 9 -24 5 0 8 -8 7 -17 -2 -10 3 -24 11 -31 7 -8 11 -18 8 -23 -4 -5
-2 -9 2 -9 5 0 9 -9 10 -20 1 -13 -4 -20 -15 -20 -21 1 -54 25 -45 33 3 4 1 7
-6 7 -8 0 -11 7 -7 15 3 8 1 15 -4 15 -6 0 -10 8 -10 19 0 10 -6 31 -14 46 -8
15 -13 36 -11 46 2 11 0 19 -4 19 -5 0 -8 15 -8 33 1 18 -2 38 -7 45 -4 7 -4
12 0 12 3 0 1 7 -6 15 -7 8 -8 15 -3 15 5 0 9 10 7 23 -1 12 -3 22 -4 22 -6 0
-4 88 2 92 5 2 6 8 3 13 -3 5 0 19 6 32 9 20 16 23 42 20 17 -3 37 -11 45 -19
7 -7 18 -11 23 -8 5 4 9 1 9 -4 0 -6 7 -11 15 -11 8 0 15 -5 15 -11 0 -5 4 -8
9 -5 11 7 46 -19 46 -35 0 -7 7 -13 17 -15 12 -1 15 4 12 22 -2 13 -2 24 1 24
2 0 49 -45 104 -100 54 -55 102 -100 106 -100 4 0 15 -8 24 -17 9 -10 25 -23
36 -29 31 -17 31 -43 0 -40 -24 3 -25 2 -9 -15 9 -11 23 -19 31 -19 7 0 13 -5
13 -11 0 -5 4 -8 9 -5 5 3 12 -1 15 -10 3 -9 12 -14 18 -12 7 3 19 -2 27 -9 7
-8 20 -12 28 -9 23 9 36 -4 21 -22 -7 -9 -8 -13 -2 -9 7 4 11 -4 10 -23 -1
-17 -5 -30 -9 -30 -5 0 -5 -5 -2 -10 4 -6 -1 -25 -9 -42 -9 -17 -13 -29 -10
-25 4 4 13 2 20 -4 10 -8 11 -4 8 19 -6 36 17 60 36 37 7 -8 9 -15 4 -15 -5 0
-9 -12 -10 -27 0 -24 -6 -71 -17 -143 -2 -8 -6 -20 -10 -27 -4 -6 -4 -18 -1
-27 3 -9 2 -16 -4 -16 -6 0 -8 -9 -5 -20 3 -11 0 -27 -7 -35 -10 -12 -10 -15
0 -15 9 0 9 -4 2 -12 -6 -7 -12 -33 -15 -58 -2 -25 -8 -53 -12 -63 -4 -10 -2
-24 6 -34 10 -12 10 -15 2 -9 -9 5 -13 -2 -14 -26 -2 -47 -6 -70 -15 -92 -6
-15 -4 -17 7 -11 11 7 12 6 3 -6 -11 -15 -15 -39 -16 -111 -1 -26 -5 -45 -11
-41 -5 3 -4 -3 2 -14 7 -14 7 -23 -1 -31 -9 -9 -9 -12 1 -12 11 0 11 -3 1 -15
-10 -12 -10 -15 0 -15 10 0 10 -3 1 -14 -9 -10 -9 -16 -1 -21 6 -4 7 -12 2
-18 -10 -14 -10 -27 1 -44 4 -6 4 -14 -1 -17 -9 -6 -8 -47 2 -64 4 -7 2 -12
-6 -12 -9 0 -9 -3 2 -10 8 -5 10 -10 4 -10 -6 0 -11 -7 -11 -15 0 -8 4 -12 9
-9 11 7 10 -7 -2 -26 -5 -8 -5 -17 0 -20 4 -3 11 -34 13 -70 3 -36 9 -83 12
-105 4 -22 8 -47 9 -55 1 -9 5 -21 10 -28 4 -6 5 -12 2 -12 -3 0 3 -24 14 -54
10 -30 16 -57 13 -60 -4 -3 -2 -6 4 -6 5 0 10 -6 10 -12 1 -22 8 -43 16 -49 4
-3 9 -15 10 -27 0 -11 5 -18 9 -16 4 3 8 -4 8 -16 0 -11 6 -23 14 -26 8 -3 12
-12 9 -20 -3 -8 0 -14 6 -14 6 0 11 -5 11 -10 0 -6 6 -18 13 -26 34 -41 106
-112 141 -139 21 -16 45 -36 52 -43 8 -7 14 -11 14 -7 0 3 20 -5 44 -19 24
-13 47 -22 50 -19 3 4 6 1 6 -5 0 -7 3 -11 8 -10 11 2 66 -14 79 -24 7 -6 14
-5 18 3 6 8 10 8 15 -2 10 -15 168 -20 188 -6 9 7 12 0 12 -29 0 -25 3 -34 9
-26 4 8 11 13 15 13 32 -5 67 2 80 14 9 10 17 11 21 5 4 -6 12 -4 22 5 9 9 23
13 34 10 13 -4 19 -2 17 7 -2 7 7 14 20 16 13 2 20 8 16 14 -5 7 0 9 14 6 15
-4 22 -2 22 8 0 17 20 19 21 2 0 -7 4 -3 10 10 5 14 13 20 20 16 8 -4 9 -3 5
5 -4 6 0 14 8 17 9 3 13 10 10 15 -3 5 2 6 10 3 17 -7 49 19 38 31 -4 5 1 5
11 2 10 -4 16 -3 13 1 -6 10 26 50 43 54 17 3 61 38 61 48 0 3 -21 7 -47 9
-26 1 -49 3 -50 5 -5 5 21 76 28 76 5 0 5 7 2 17 -4 10 -2 14 4 10 6 -4 18 8
27 26 8 17 16 28 16 23 0 -12 86 97 140 178 22 32 40 54 40 50 0 -10 23 26 39
62 5 12 15 24 21 26 6 2 12 11 14 20 1 9 9 25 18 35 8 10 24 34 34 53 10 19
26 40 34 47 8 7 11 13 6 13 -5 0 -4 6 2 13 10 12 34 54 82 142 15 28 33 61 41
75 7 14 14 27 14 30 6 25 27 60 35 60 5 0 9 3 8 7 -1 5 3 23 9 41 7 18 12 35
12 39 -1 3 3 9 8 12 10 7 37 62 38 77 0 6 5 18 11 25 6 8 17 31 23 51 7 21 17
40 22 44 5 3 7 10 4 15 -4 5 -2 9 3 9 5 0 9 6 9 13 0 6 10 33 21 59 12 26 22
54 22 63 0 9 4 14 9 11 5 -4 8 2 6 11 -1 10 -8 17 -14 16 -6 -2 -11 2 -11 8 0
14 -99 113 -129 128 -11 7 -20 17 -18 23 1 7 -3 12 -10 13 -7 0 -21 8 -32 17
-11 9 -22 14 -25 11 -3 -4 -6 2 -6 11 0 12 -5 16 -16 12 -9 -3 -12 -2 -9 5 4
6 -2 13 -14 16 -12 3 -21 9 -21 14 0 5 -7 9 -15 9 -8 0 -15 5 -15 10 0 6 -7
10 -15 10 -8 0 -15 4 -15 8 0 9 -71 47 -82 44 -5 -1 -8 5 -8 14 0 8 -5 12 -11
9 -6 -4 -17 1 -25 11 -9 11 -12 12 -8 4 6 -11 2 -10 -13 3 -11 9 -23 14 -26
10 -4 -3 -7 -1 -7 5 0 7 -9 12 -20 12 -11 0 -20 5 -20 10 0 6 -9 10 -19 10
-11 0 -21 5 -23 11 -2 5 -10 11 -18 13 -41 8 -70 19 -70 27 0 5 -7 6 -15 3 -8
-4 -15 -1 -15 5 0 6 -7 8 -15 5 -8 -4 -15 -2 -15 4 0 5 -7 13 -16 16 -10 4
-13 2 -8 -7 5 -8 2 -7 -9 2 -10 8 -20 11 -23 8 -4 -3 -13 1 -21 9 -8 8 -19 12
-24 8 -6 -3 -15 -1 -22 4 -13 10 -67 26 -79 24 -4 -1 -19 3 -33 8 -17 7 -24 7
-20 0 3 -6 13 -10 21 -10 8 0 14 -4 14 -10 0 -5 3 -9 8 -9 20 3 33 -2 27 -11
-4 -6 -3 -9 2 -8 12 4 73 -23 73 -33 0 -5 7 -6 15 -3 8 4 15 1 15 -5 0 -6 7
-11 15 -11 8 0 15 -4 15 -10 0 -5 5 -10 11 -10 6 0 31 -13 56 -30 24 -16 48
-30 53 -30 5 0 14 -8 19 -17 6 -10 11 -14 11 -9 0 5 9 -1 20 -14 11 -13 20
-19 20 -14 0 5 6 2 13 -7 7 -9 17 -18 24 -20 35 -12 185 -157 177 -171 -3 -4
-2 -8 3 -8 12 0 32 -49 22 -55 -4 -3 -6 -19 -2 -35 3 -17 1 -30 -4 -30 -5 0
-19 -9 -31 -21 -12 -11 -27 -17 -32 -14 -6 3 -10 2 -10 -3 0 -5 -10 -8 -22 -8
-13 1 -29 -2 -36 -7 -6 -5 -12 -6 -12 -2 0 4 -8 1 -17 -6 -9 -8 -14 -9 -10 -3
4 7 0 15 -9 18 -8 3 -12 2 -9 -4 7 -12 -22 -12 -50 -1 -11 5 -25 4 -32 -1 -7
-6 -13 -7 -13 -2 0 5 -21 10 -48 11 -79 2 -132 8 -132 14 0 3 -18 4 -40 3 -22
-1 -40 1 -40 5 0 3 -24 7 -53 7 -44 2 -95 6 -189 18 -10 1 -20 5 -24 8 -3 4
-14 -1 -24 -10 -47 -44 -62 -51 -76 -37 -20 20 -17 30 16 58 17 14 30 28 30
32 0 3 12 17 26 30 15 14 24 25 20 25 -4 0 2 10 14 22 11 12 20 27 20 33 0 7
9 20 20 30 11 10 17 22 14 26 -3 5 1 12 10 15 8 3 12 12 9 20 -3 8 0 14 6 14
6 0 10 3 9 8 -1 4 4 20 10 35 7 16 12 32 12 37 0 5 4 19 9 32 5 13 9 26 10 30
1 4 6 21 11 38 8 26 6 29 -8 21 -9 -4 -23 -6 -29 -4 -7 3 -13 -2 -13 -9 0 -8
-8 -15 -17 -15 -49 1 -74 -4 -68 -12 3 -6 -4 -8 -15 -6 -12 2 -23 -2 -27 -10
-3 -8 -9 -12 -14 -9 -5 3 -9 2 -9 -3 0 -4 -25 -9 -55 -10 -30 -2 -55 1 -55 6
0 23 14 41 30 41 10 0 21 7 24 16 3 8 10 13 15 10 4 -3 16 3 26 14 10 11 22
20 27 20 5 0 20 12 33 26 15 16 30 24 40 20 9 -3 14 -10 11 -15 -3 -5 3 -7 14
-4 21 6 18 23 -5 23 -11 0 -12 6 -4 30 6 16 15 27 20 24 8 -5 13 10 10 29 -1
5 3 6 9 2 5 -3 13 2 17 12 4 10 15 27 25 38 10 10 17 24 14 30 -4 13 19 36 28
27 4 -3 4 1 1 10 -4 10 1 24 12 35 10 10 18 27 18 38 0 11 6 26 13 33 6 7 12
24 12 38 0 13 5 24 11 24 6 0 9 6 6 13 -2 6 0 20 5 29 11 23 -32 62 -70 63
-20 0 -28 6 -30 23 -2 14 2 22 12 22 10 0 13 6 10 15 -4 9 2 23 13 33 12 11
19 31 19 56 1 22 6 42 13 44 6 2 9 7 6 12 -3 5 2 15 10 24 8 8 14 21 13 28 -2
7 2 12 7 11 6 -1 11 6 11 15 1 26 8 46 19 54 5 4 10 17 10 30 1 13 6 34 12 48
6 14 8 30 6 37 -5 13 -43 13 -43 0 0 -5 -7 -4 -15 3 -12 10 -15 10 -15 -4 0
-14 -11 -21 -32 -17 -5 0 -8 -4 -8 -10 0 -8 -5 -8 -15 1 -8 7 -15 8 -15 3 0
-5 -15 -9 -32 -8 -39 1 -81 -22 -74 -41 5 -14 -20 -27 -35 -18 -5 3 -9 0 -9
-6 0 -6 -4 -8 -10 -5 -5 3 -10 2 -10 -4 0 -12 -24 -26 -62 -35 -25 -6 -28 -4
-28 18 0 14 6 29 13 33 8 4 22 23 32 41 11 17 23 32 27 32 4 0 8 9 8 20 0 11
5 20 11 20 5 0 7 5 4 10 -3 6 -1 10 5 10 6 0 8 5 5 10 -3 6 -1 10 5 10 7 0 10
7 6 15 -3 8 -1 15 4 15 6 0 9 3 8 8 0 4 2 16 6 27 29 77 34 93 29 99 -3 3 -1
12 5 19 7 8 9 17 5 20 -3 4 -1 7 7 7 9 0 10 3 1 14 -8 9 -8 15 -2 18 17 5 20
89 3 95 -8 3 -17 2 -21 -3 -3 -5 -36 -10 -74 -11 -66 -2 -98 -16 -90 -40 6
-16 -13 -25 -62 -29 -38 -3 -43 0 -42 17 1 10 5 19 10 19 4 0 5 5 2 10 -3 6
-2 10 4 10 5 0 8 8 7 18 -2 9 1 20 6 23 7 5 12 19 22 74 1 6 5 16 9 23 5 6 5
12 1 12 -3 0 -1 7 6 15 6 8 9 19 5 25 -3 5 0 10 7 10 10 0 10 2 1 8 -8 5 -9
13 -3 22 5 9 5 19 -1 26 -7 8 -6 14 1 19 5 3 10 13 10 20 0 11 -11 14 -40 12
-22 -1 -40 -5 -40 -8 0 -4 -16 -6 -36 -4 -29 2 -38 -2 -41 -16 -3 -11 -10 -19
-16 -19 -6 0 -18 -7 -28 -16 -10 -9 -32 -18 -48 -19 -26 -2 -30 1 -29 21 1 12
10 25 20 27 10 3 22 17 28 31 5 14 12 26 15 26 4 0 3 -5 -1 -12 -4 -7 -3 -8 4
-4 6 4 9 13 5 21 -3 8 0 15 7 15 6 0 9 4 5 9 -3 5 -1 12 5 16 6 4 8 11 5 16
-4 5 -2 9 4 9 6 0 8 6 5 14 -3 8 0 17 5 21 6 3 9 11 6 16 -4 5 -2 9 4 9 5 0 8
9 6 20 -2 11 0 20 5 20 4 0 8 15 9 33 1 41 4 58 15 76 6 10 5 12 -2 7 -7 -4
-12 -3 -12 2 0 5 -10 8 -22 7 -13 -1 -23 -3 -23 -4 0 -3 -34 -11 -56 -14 -8
-1 -23 -10 -33 -19 -19 -19 -31 -24 -22 -9 4 5 -5 4 -19 -2 -14 -7 -25 -18
-25 -24 0 -7 -7 -13 -15 -13 -8 0 -15 -4 -15 -10 0 -5 -12 -10 -26 -10 -24 0
-25 3 -19 28 4 15 8 33 8 40 0 6 5 12 11 12 6 0 4 5 -4 10 -8 5 -10 10 -4 10
6 0 9 16 7 37 -1 21 3 40 10 45 9 6 9 8 -2 8 -7 0 -11 6 -7 15 3 8 0 15 -6 15
-7 0 -6 5 2 15 8 10 9 15 2 15 -7 0 -9 7 -5 17 4 11 3 14 -5 9 -8 -4 -10 3 -7
24 2 20 -1 33 -10 36 -8 3 -11 12 -8 20 5 13 -14 20 -41 15 -5 -1 -12 3 -16 9
-5 7 -17 1 -36 -19 -21 -22 -31 -27 -37 -18 -6 8 -7 7 -4 -5 3 -9 -1 -22 -9
-29 -12 -10 -12 -14 -2 -21 10 -8 10 -11 0 -15 -6 -2 -9 -10 -6 -15 4 -6 -1
-17 -10 -24 -10 -7 -20 -28 -22 -46 -1 -18 -5 -50 -8 -71 -4 -26 -2 -36 6 -31
6 4 8 3 5 -4 -9 -13 2 -44 13 -37 5 3 6 -4 3 -15 -3 -12 0 -20 6 -20 7 0 10
-4 6 -9 -3 -5 2 -16 10 -24 8 -9 15 -24 15 -35 0 -40 50 -38 68 3 6 13 20 29
32 35 20 11 21 9 19 -35 -2 -28 -9 -49 -17 -54 -9 -5 -16 -17 -17 -27 0 -11
-5 -26 -10 -34 -15 -24 -17 -80 -3 -80 8 0 9 -3 3 -8 -14 -10 -15 -42 -2 -39
6 1 11 -10 11 -25 -1 -16 3 -28 9 -28 6 0 8 -3 4 -6 -3 -3 -1 -12 6 -19 9 -10
14 -10 22 2 8 11 11 9 13 -11 1 -17 -3 -26 -13 -26 -8 0 -15 -4 -15 -10 0 -5
6 -7 13 -4 8 3 13 -3 13 -16 0 -11 -4 -20 -9 -20 -4 0 -6 -4 -2 -10 3 -5 11
-7 19 -4 9 4 12 -7 10 -43 -1 -26 -2 -50 -3 -53 -1 -3 -17 -6 -37 -7 -29 -1
-37 4 -45 25 -6 15 -8 34 -6 44 3 10 2 20 -2 23 -4 2 -7 14 -6 27 1 13 -2 25
-6 28 -4 3 -9 22 -11 43 -1 20 -5 37 -8 37 -6 0 -11 33 -14 78 0 12 -6 22 -13
22 -7 0 -10 7 -7 15 4 8 1 22 -6 30 -6 8 -9 18 -6 24 4 5 0 15 -7 23 -7 7 -12
20 -12 28 1 8 -5 23 -13 33 -8 9 -12 17 -8 17 3 0 0 13 -8 29 -9 16 -12 31 -9
35 4 3 1 6 -5 6 -6 0 -10 -9 -9 -20 1 -11 5 -20 9 -20 4 0 8 -5 8 -11 0 -5 -5
-7 -11 -3 -7 4 -6 -3 2 -17 7 -13 14 -26 14 -29 1 -3 4 -14 8 -25 6 -20 16
-64 21 -100 2 -11 4 -20 6 -20 3 0 10 -48 12 -82 1 -18 4 -33 8 -33 3 0 7 -19
9 -42 1 -23 7 -46 14 -50 9 -6 9 -8 -1 -8 -10 0 -10 -5 -1 -21 8 -16 8 -20 -1
-14 -9 6 -9 2 0 -15 6 -12 9 -24 6 -27 -3 -3 -1 -14 5 -24 7 -13 6 -19 -1 -19
-7 0 -8 -5 -3 -12 4 -7 6 -20 5 -30 -2 -9 2 -19 8 -23 8 -5 8 -11 -1 -21 -6
-8 -7 -14 -2 -14 5 0 9 -27 8 -60 0 -33 3 -60 8 -60 5 0 5 -6 -2 -13 -8 -10
-7 -17 1 -25 9 -9 9 -12 -3 -12 -8 0 -10 -3 -4 -8 6 -4 10 -18 10 -32 0 -14
-4 -28 -10 -32 -6 -5 -5 -8 3 -8 9 0 10 -5 3 -19 -6 -10 -7 -21 -4 -25 11 -11
9 -246 -2 -246 -5 0 -4 -4 4 -9 10 -6 10 -10 1 -16 -9 -6 -9 -10 1 -16 8 -5 9
-9 4 -9 -6 0 -10 -18 -8 -42 2 -40 -9 -68 -28 -68 -5 0 -9 9 -9 20 0 11 -4 20
-8 20 -7 0 -11 -40 -14 -157 -1 -23 -4 -40 -8 -38 -9 5 -6 -27 4 -43 4 -7 2
-12 -5 -12 -7 0 -9 -3 -6 -6 4 -4 13 -1 22 6 9 7 19 10 23 6 11 -11 9 -76 -2
-76 -6 0 -5 -5 2 -12 8 -8 8 -17 0 -31 -6 -11 -11 -44 -11 -74 0 -29 -3 -55
-6 -58 -4 -2 -6 -24 -6 -49 1 -39 -1 -45 -21 -49 -13 -2 -21 0 -18 4 3 5 -11
9 -31 9 -20 0 -43 7 -51 15 -13 13 -12 15 11 21 13 3 23 10 20 14 -3 5 0 10 6
12 6 2 12 16 12 31 1 15 5 27 8 27 4 0 5 33 3 73 -6 111 -8 121 -21 130 -7 4
-10 14 -7 22 4 8 1 15 -6 15 -6 0 -8 5 -5 10 3 6 1 10 -5 10 -6 0 -9 4 -5 9 3
5 -1 16 -9 24 -8 8 -12 17 -9 21 4 3 -2 13 -13 21 -10 8 -15 15 -11 15 4 0 -4
12 -18 28 -14 15 -28 35 -31 45 -3 9 -9 17 -14 17 -5 0 -12 9 -15 20 -3 11
-13 20 -21 20 -8 0 -14 4 -14 9 0 13 -96 111 -109 111 -6 0 -11 8 -11 17 0 9
-3 14 -6 10 -4 -3 -12 -1 -18 6 -7 7 -27 23 -45 37 -18 14 -39 31 -46 38 -8 6
-18 12 -24 12 -6 0 -11 5 -11 10 0 6 -7 10 -15 10 -8 0 -15 5 -15 10 0 6 -6
10 -14 10 -8 0 -22 10 -32 23 -11 15 -15 16 -11 5 4 -11 1 -18 -6 -18 -8 0 -8
-3 2 -9 8 -5 9 -11 3 -15 -7 -4 -7 -17 -2 -36 5 -19 5 -30 -1 -30 -6 0 -7 -5
-3 -12 12 -19 13 -77 2 -84 -13 -8 -29 17 -23 34 2 6 0 12 -6 12 -6 0 -6 7 1
19 12 23 1 34 -20 20 -8 -5 -10 -9 -5 -9 6 0 11 -20 13 -44 2 -40 5 -59 14
-96 2 -10 -5 -15 -22 -15 -20 0 -26 6 -28 28 -2 17 -9 27 -20 27 -15 0 -15 2
-2 10 13 8 12 10 -2 10 -12 0 -18 8 -18 23 0 13 -9 33 -20 45 -11 12 -20 24
-20 27 1 27 -1 35 -8 31 -4 -2 -12 7 -19 20 -6 13 -7 21 -2 18 5 -3 -4 18 -21
46 -16 28 -30 55 -30 61 0 6 -4 8 -9 5 -7 -5 -19 17 -25 46 0 4 -7 13 -13 20
-7 6 -13 20 -13 30 0 9 -7 21 -16 26 -9 5 -15 11 -13 13 5 9 -13 49 -22 49 -6
0 -7 5 -4 10 3 6 1 10 -5 10 -6 0 -9 4 -5 9 3 5 -1 16 -9 24 -8 8 -12 17 -9
21 4 3 2 6 -3 6 -6 0 -18 20 -28 45 -10 24 -22 42 -27 39 -4 -2 -6 5 -4 16 2
11 0 20 -6 20 -5 0 -9 6 -9 14 0 8 -7 17 -16 20 -8 3 -12 10 -9 16 3 5 1 10
-5 10 -7 0 -9 8 -5 20 5 15 2 20 -13 20 -10 0 -19 6 -19 13 0 7 -16 41 -36 76
-20 34 -37 69 -37 77 0 7 -5 14 -11 14 -6 0 -9 7 -5 15 3 9 0 15 -10 15 -10 0
-14 6 -10 15 3 9 0 15 -9 15 -8 0 -15 9 -15 21 0 11 -4 18 -9 15 -4 -3 -13 12
-20 34 -6 21 -19 41 -29 44 -18 6 -29 66 -12 66 6 0 10 7 10 15 0 8 7 15 15
15 14 0 20 12 16 34 -1 5 5 16 14 26 8 9 12 20 8 23 -3 4 -1 7 6 7 8 0 11 6 7
17 -4 9 -2 19 4 23 6 4 12 22 13 41 1 19 6 37 12 42 6 4 5 10 -3 16 -8 4 -14
12 -14 16 0 4 6 12 14 16 7 5 8 9 2 9 -6 0 -10 16 -9 36 1 19 -4 41 -11 49 -7
7 -10 15 -7 18 3 4 -2 18 -11 32 -9 13 -15 26 -14 27 2 2 -7 17 -20 35 -12 17
-22 36 -22 42 0 6 -9 15 -20 21 -11 6 -20 15 -20 21 0 15 -26 39 -34 32 -3 -4
-6 -2 -6 4 0 6 -12 14 -27 18 -15 3 -40 20 -56 37 -19 19 -35 28 -48 25 -10
-3 -19 0 -19 5 0 6 -6 5 -15 -2 -8 -7 -15 -8 -15 -2 0 5 -14 8 -30 7 -17 -1
-33 1 -36 6 -3 5 -13 5 -24 -1 -12 -7 -21 -7 -25 0 -7 11 -53 10 -57 -2z"/>
<path d="M3310 5632 c0 -7 -4 -11 -8 -8 -4 2 -8 -4 -8 -15 0 -10 5 -19 11 -19
5 0 5 -4 -2 -8 -7 -4 -14 -25 -17 -47 -2 -22 -5 -41 -7 -42 -7 -10 -3 -71 5
-82 9 -12 8 -13 -3 -6 -11 6 -12 5 -5 -6 4 -8 9 -18 10 -24 1 -5 3 -21 5 -35
5 -30 25 -54 39 -45 14 9 62 -23 55 -35 -4 -6 -2 -10 3 -10 5 0 24 -15 43 -32
19 -18 38 -33 42 -33 5 0 14 -7 20 -16 7 -9 20 -15 30 -13 10 1 20 -3 23 -10
10 -26 84 4 84 34 0 6 4 9 8 6 10 -6 9 45 -2 62 -4 7 -3 12 3 12 11 0 9 19 -3
39 -6 9 -5 12 2 8 5 -4 1 12 -11 35 -11 24 -20 46 -19 51 1 4 -3 7 -8 7 -5 0
-10 7 -10 16 0 8 -4 12 -10 9 -5 -3 -10 0 -10 8 0 8 -7 17 -15 21 -8 3 -15 12
-15 21 0 8 -4 14 -8 13 -4 -2 -31 20 -59 48 -29 29 -54 49 -57 46 -3 -3 -15 3
-27 14 -12 10 -30 19 -40 19 -11 0 -24 7 -29 15 -7 11 -10 11 -10 2z"/>
<path d="M3059 5323 c0 -4 -2 -16 -4 -26 -2 -9 1 -15 6 -11 5 3 9 -9 9 -25 0
-17 5 -31 10 -31 6 0 10 -7 10 -15 0 -14 33 -78 52 -102 6 -7 15 -10 20 -7 6
4 5 10 -3 15 -11 6 -10 9 4 14 15 6 47 -14 47 -30 0 -11 48 -54 54 -48 3 4 6
-1 6 -10 0 -10 5 -17 12 -17 6 0 20 -8 31 -17 15 -13 19 -14 13 -3 -4 8 1 6
11 -6 10 -11 24 -19 31 -16 6 2 12 -1 12 -7 0 -6 9 -11 19 -11 11 0 23 -4 26
-10 3 -5 15 -10 26 -10 10 0 19 -4 19 -8 0 -5 6 -9 13 -10 6 -1 23 -3 37 -4
14 -2 27 -6 30 -9 3 -3 16 -2 30 2 16 4 18 7 8 8 -14 1 -16 5 -8 26 7 17 6 25
-1 25 -6 0 -9 7 -5 15 3 8 0 20 -7 27 -7 8 -13 19 -15 26 -4 21 -33 46 -87 77
-57 33 -97 70 -87 81 4 4 2 4 -4 1 -7 -4 -17 0 -24 8 -7 8 -21 15 -31 15 -11
0 -19 5 -19 11 0 5 -4 8 -9 4 -5 -3 -12 -1 -15 4 -4 5 -14 8 -24 7 -9 -2 -20
1 -24 7 -3 6 -14 11 -25 12 -10 1 -25 5 -33 8 -44 15 -48 15 -53 -5 -6 -23
-33 -19 -31 5 1 9 -1 16 -5 15 -18 -2 -24 3 -12 11 9 6 10 11 2 15 -6 4 -11 4
-12 -1z"/>
<path d="M3105 5034 c2 -20 7 -40 12 -43 4 -3 10 -15 11 -26 2 -11 8 -21 12
-23 5 -2 6 -10 3 -18 -3 -8 0 -14 7 -14 6 0 8 -4 5 -10 -3 -5 -2 -10 3 -10 6
0 17 -18 26 -40 9 -22 18 -40 22 -40 3 0 2 5 -1 10 -3 6 -2 10 4 10 6 0 8 6 5
14 -4 10 1 14 15 13 12 -1 21 -6 21 -12 0 -14 97 -115 104 -108 3 3 8 -2 12
-11 3 -9 10 -13 15 -10 5 3 9 0 9 -6 0 -6 5 -8 10 -5 6 3 10 2 10 -2 0 -11 84
-53 105 -53 8 0 15 -4 15 -10 0 -5 12 -10 26 -10 14 0 23 -3 21 -7 -3 -5 5 -8
16 -9 12 0 36 -3 54 -6 l32 -6 -4 41 c-2 23 -5 43 -6 45 -1 1 -2 5 -3 10 -10
56 -108 168 -153 175 -30 4 -58 13 -85 28 -10 5 -24 9 -32 9 -8 0 -16 5 -18
10 -2 6 -13 12 -26 13 -12 0 -22 5 -22 9 0 4 -7 8 -15 8 -8 0 -15 5 -15 10 0
6 -7 10 -15 10 -8 0 -15 5 -15 12 0 6 -3 8 -7 5 -3 -4 -16 3 -27 16 -12 12
-30 24 -41 25 -11 2 -23 9 -26 14 -4 6 -10 2 -13 -10 -9 -26 -46 -19 -39 8 3
10 0 21 -5 24 -7 4 -9 -7 -7 -30z"/>
<path d="M3628 4887 c3 -12 12 -28 19 -35 11 -11 12 -10 9 10 -3 13 -5 26 -5
29 -1 4 -7 9 -15 12 -10 4 -12 0 -8 -16z"/>
<path d="M3031 4817 c-8 -10 -7 -14 2 -14 8 0 14 6 14 14 0 7 -1 13 -2 13 -2
0 -8 -6 -14 -13z"/>
<path d="M3040 4753 c10 -20 17 -40 14 -45 -3 -4 0 -8 6 -8 7 0 10 -6 7 -12
-2 -7 3 -19 12 -26 13 -11 13 -12 1 -6 -11 6 -10 2 3 -13 9 -11 14 -23 10 -26
-3 -4 -1 -7 5 -7 7 0 12 -7 12 -16 0 -8 5 -12 11 -8 7 4 9 0 5 -14 -4 -13 -1
-22 9 -26 9 -3 14 -2 11 3 -3 5 1 14 8 21 12 9 20 5 43 -21 15 -18 38 -42 51
-55 12 -13 22 -29 22 -35 0 -7 3 -10 6 -6 3 3 17 -4 30 -16 35 -34 45 -40 99
-67 28 -14 53 -29 56 -34 4 -5 12 -5 18 -2 6 4 11 2 11 -4 0 -6 5 -8 10 -5 6
3 10 2 10 -3 0 -11 47 -27 69 -23 7 1 10 -2 6 -8 -3 -6 0 -9 8 -5 17 6 41 -21
32 -36 -3 -6 -11 -8 -16 -5 -5 4 -9 2 -9 -2 0 -5 14 -14 30 -20 23 -8 30 -8
30 0 0 7 4 6 10 -3 5 -8 10 -11 10 -6 0 5 7 3 15 -4 11 -9 15 -9 15 -1 0 7 5
9 10 6 6 -3 10 -15 10 -26 0 -10 7 -19 15 -19 12 0 13 5 7 18 -5 9 -7 22 -5
28 2 7 -7 10 -27 8 -16 -2 -31 1 -31 6 -5 29 -3 35 11 35 17 0 22 52 8 72 -5
6 -5 14 2 18 7 4 5 11 -5 21 -8 9 -16 22 -16 30 -1 8 -2 19 -3 24 0 6 -8 15
-16 20 -8 5 -12 10 -7 10 7 0 -12 23 -70 88 -13 14 -23 22 -23 19 0 -4 -16 2
-36 13 -20 12 -32 15 -28 8 4 -7 -1 -6 -12 3 -10 9 -36 22 -56 30 -21 7 -38
17 -38 21 0 4 -6 8 -14 8 -7 0 -42 23 -76 50 -34 28 -69 51 -76 51 -23 2 -28
4 -41 12 -13 8 -38 15 -87 24 -20 4 -27 2 -22 -6 5 -7 -1 -11 -13 -11 -12 0
-21 5 -21 10 0 6 -7 10 -15 10 -13 0 -12 -6 5 -37z"/>
<path d="M3664 4559 c-6 -11 14 -21 26 -14 6 3 11 1 11 -4 1 -6 3 -15 4 -21 1
-5 3 -15 4 -21 0 -5 6 -7 12 -3 8 4 7 9 -2 15 -12 7 -12 9 0 9 11 0 11 3 1 15
-6 8 -9 18 -7 23 3 4 -6 8 -19 8 -14 0 -27 -3 -30 -7z"/>
<path d="M3079 4515 c-5 -20 -4 -52 2 -60 4 -5 8 -13 8 -17 1 -5 3 -8 6 -8 3
0 8 0 11 0 4 0 2 6 -3 13 -6 6 -9 20 -8 29 2 10 -1 21 -7 24 -6 4 -5 10 3 15
10 6 11 9 2 9 -7 0 -14 -2 -14 -5z"/>
<path d="M3125 4481 c-3 -5 -2 -12 3 -15 4 -2 8 -17 7 -33 0 -25 -4 -28 -30
-25 -23 2 -26 0 -15 -8 12 -8 12 -10 1 -10 -11 0 -11 -3 -1 -15 6 -8 8 -20 4
-26 -4 -8 -3 -9 4 -5 8 5 12 -4 12 -28 0 -20 4 -36 8 -36 7 0 12 -19 15 -62 1
-9 5 -14 9 -12 4 3 8 -2 8 -10 0 -9 4 -16 10 -16 5 0 6 -7 3 -17 -5 -12 -3
-14 7 -8 9 6 11 4 6 -4 -5 -7 0 -19 10 -27 11 -9 13 -13 7 -9 -9 4 -11 1 -7
-9 3 -9 10 -16 15 -16 5 0 9 -9 9 -21 0 -11 5 -17 10 -14 6 3 10 -3 10 -15 0
-12 5 -18 10 -15 6 3 10 0 10 -8 0 -8 12 -27 27 -43 15 -16 27 -32 26 -35 -1
-4 9 -10 22 -13 14 -4 24 -10 24 -14 -3 -18 2 -32 10 -30 5 2 23 -9 40 -25 17
-15 31 -22 31 -15 0 7 6 4 12 -6 15 -26 60 -65 76 -66 6 0 12 -6 12 -12 0 -9
4 -8 10 2 8 13 10 12 10 -3 0 -10 4 -16 9 -12 6 3 14 -3 20 -12 6 -10 11 -15
11 -10 0 4 10 1 23 -8 13 -8 27 -12 30 -8 4 3 7 0 7 -7 0 -7 3 -10 7 -7 3 4
14 0 24 -9 10 -9 25 -14 34 -11 8 4 15 2 15 -3 0 -6 7 -10 16 -10 14 0 14 1 0
16 -9 8 -20 12 -26 9 -5 -3 -10 0 -10 7 0 9 -3 9 -10 -2 -6 -9 -10 -10 -10 -3
0 6 -3 18 -6 27 -5 12 0 16 20 16 23 0 26 4 22 25 -3 13 -1 27 4 30 9 6 6 78
-5 95 -3 5 -2 10 4 10 5 0 4 12 -5 28 -7 15 -14 35 -14 45 0 9 -4 17 -10 17
-5 0 -10 8 -10 17 0 9 -10 28 -22 42 -19 21 -20 23 -3 11 l20 -15 -20 25 c-11
14 -22 27 -25 30 -3 3 -16 22 -30 42 -13 20 -27 35 -31 32 -4 -2 -9 6 -12 17
-4 13 -10 18 -18 13 -7 -4 -10 -3 -6 3 6 9 -43 61 -51 54 -2 -1 -11 6 -20 16
-9 11 -32 25 -49 32 -18 8 -33 18 -33 23 0 5 -4 7 -9 4 -10 -7 -112 60 -124
81 -5 7 -12 11 -17 8 -5 -3 -11 4 -15 15 -3 11 -13 20 -21 20 -8 0 -14 5 -14
10 0 6 -9 10 -20 10 -11 0 -20 5 -20 10 0 13 -17 13 -25 1z"/>
<path d="M3738 4153 c6 -2 9 -10 5 -16 -11 -19 -12 -66 -2 -73 6 -4 6 -11 -1
-19 -8 -10 -8 -13 2 -11 11 1 20 11 17 19 -6 16 -3 69 3 73 11 7 -10 34 -26
33 -7 0 -6 -2 2 -6z"/>
<path d="M3060 3995 c-10 -12 -10 -18 0 -30 7 -8 8 -15 3 -15 -5 0 -9 -18 -9
-40 -1 -41 15 -57 17 -17 2 40 4 117 3 117 -1 0 -7 -7 -14 -15z"/>
<path d="M877 3873 c-3 -5 -36 -8 -74 -7 -67 1 -110 -16 -97 -38 3 -5 1 -14
-4 -21 -6 -7 -13 -26 -16 -42 -2 -17 -5 -30 -6 -30 -3 0 -9 -38 -12 -67 -1
-16 -5 -28 -8 -28 -3 0 -6 -12 -6 -27 -1 -35 -11 -79 -19 -93 -3 -5 -1 -10 5
-10 7 0 8 -5 3 -12 -4 -7 -8 -22 -8 -33 0 -11 -3 -24 -6 -30 -4 -5 -5 -20 -4
-32 1 -13 -1 -23 -4 -23 -3 0 -6 -29 -6 -65 0 -36 -3 -65 -6 -65 -13 0 -8
-404 5 -412 8 -6 8 -8 -1 -8 -7 0 -13 -5 -13 -11 0 -5 3 -8 8 -6 4 3 8 -11 8
-31 3 -71 9 -132 14 -132 3 0 5 -16 5 -35 -1 -19 1 -35 4 -35 5 0 11 -32 14
-82 1 -10 5 -18 10 -18 4 0 6 -4 2 -10 -3 -5 3 -34 13 -64 13 -37 15 -57 8
-60 -7 -3 -6 -5 2 -5 6 -1 12 -7 12 -15 0 -8 5 -27 12 -43 6 -15 10 -34 9 -40
-1 -7 3 -13 9 -13 7 0 10 -6 7 -12 -2 -7 2 -27 9 -44 7 -17 10 -35 6 -39 -4
-5 -1 -5 6 -1 6 4 13 2 13 -3 3 -20 5 -26 44 -116 12 -27 23 -54 25 -60 2 -5
14 -28 28 -50 14 -22 25 -48 24 -58 0 -9 3 -15 7 -12 5 2 14 -9 21 -25 7 -17
16 -30 21 -30 5 0 6 -6 3 -14 -3 -7 2 -16 10 -19 9 -4 16 -11 16 -17 0 -6 11
-26 25 -44 14 -18 25 -38 25 -44 0 -7 5 -12 10 -12 6 0 18 -16 27 -35 9 -19
20 -32 24 -29 4 2 10 -5 14 -15 3 -11 18 -33 33 -50 15 -16 38 -43 50 -60 40
-51 220 -231 232 -231 6 0 8 -4 5 -10 -3 -5 -2 -10 3 -10 5 0 20 -10 34 -22
14 -13 44 -39 66 -60 22 -20 43 -34 46 -30 3 3 6 0 6 -7 0 -7 5 -9 10 -6 6 3
10 1 10 -4 0 -6 17 -22 38 -35 22 -13 45 -30 53 -38 8 -7 21 -14 29 -16 8 -2
17 -8 18 -13 2 -5 9 -9 17 -9 7 0 18 -7 25 -15 7 -9 29 -23 49 -32 20 -9 38
-19 41 -22 3 -4 19 -13 35 -21 17 -8 42 -23 58 -33 15 -10 27 -15 27 -11 0 4
8 0 18 -9 10 -9 28 -18 41 -20 12 -2 26 -9 31 -17 4 -7 13 -9 19 -6 6 4 11 2
11 -3 0 -6 8 -11 18 -11 10 0 22 -4 28 -10 5 -5 18 -11 29 -13 11 -2 30 -8 41
-15 12 -6 24 -8 28 -5 3 3 6 2 6 -3 0 -5 10 -11 22 -11 13 -1 24 -7 26 -12 2
-5 10 -7 18 -4 8 3 14 -1 14 -8 0 -7 3 -10 6 -7 3 4 20 2 37 -4 18 -5 39 -11
47 -13 8 -2 16 -4 18 -5 1 -2 7 -4 12 -5 6 -1 11 -3 13 -5 2 -1 20 -6 50 -13
6 -1 18 -7 26 -11 11 -7 12 -6 5 5 -6 10 0 9 19 -3 14 -10 42 -18 62 -18 19 0
35 -3 35 -7 0 -5 17 -9 37 -11 20 -1 43 -8 52 -15 12 -10 13 -9 6 3 -7 12 -6
13 6 3 8 -7 24 -12 34 -12 11 1 36 -2 55 -5 60 -10 134 -19 153 -18 9 0 17 -2
17 -6 0 -5 218 -15 275 -12 112 5 166 9 196 14 19 4 54 8 77 10 23 2 45 6 48
9 3 3 12 3 20 0 8 -3 14 -1 14 4 0 5 15 8 33 8 17 0 50 5 72 13 22 8 54 16 70
19 17 3 35 9 41 14 7 5 16 9 20 8 5 -1 18 1 29 5 44 17 51 19 70 23 10 2 23 9
27 16 4 6 8 8 8 3 0 -5 7 -2 17 5 9 8 17 12 17 10 1 -2 37 13 81 34 104 48
266 145 260 155 -7 11 -45 1 -45 -12 0 -5 -4 -6 -10 -3 -5 3 -31 8 -57 10 -27
2 -50 4 -53 5 -9 4 -34 7 -68 8 -18 1 -31 6 -28 11 4 5 -5 8 -19 6 -14 -1 -25
2 -25 8 0 6 -3 7 -6 4 -4 -3 -16 -1 -28 5 -11 7 -25 12 -29 13 -4 0 -11 5 -15
11 -4 6 -15 10 -24 8 -10 -1 -18 4 -18 12 0 9 -4 13 -9 10 -5 -3 -14 1 -21 9
-7 8 -18 15 -24 15 -6 0 -18 8 -27 18 -24 27 -82 72 -93 72 -5 0 -7 3 -3 6 5
5 -9 24 -48 68 -5 6 -16 23 -24 39 -8 15 -18 27 -23 27 -5 0 -7 4 -3 9 3 5 1
12 -5 16 -6 4 -8 10 -5 15 3 4 -2 11 -11 14 -9 4 -14 13 -10 21 3 8 1 15 -4
15 -6 0 -10 8 -10 18 0 10 -3 22 -7 26 -7 6 -13 29 -15 54 -1 6 -5 12 -10 12
-4 0 -8 11 -8 25 0 14 -3 25 -7 25 -5 0 -9 17 -11 37 -1 20 -6 39 -10 43 -4 3
-8 19 -9 35 -1 17 -3 39 -5 51 -3 25 -24 48 -33 34 -6 -10 -49 5 -76 27 -9 7
-19 10 -22 6 -4 -3 -7 -1 -7 5 0 7 -9 12 -19 12 -11 0 -23 9 -26 21 -4 12 -12
18 -21 15 -8 -3 -14 1 -14 9 0 8 -5 15 -11 15 -7 0 -21 10 -33 23 -12 12 -38
37 -59 55 -21 17 -36 32 -33 32 3 0 -6 12 -19 26 -14 15 -22 30 -20 34 3 4 -2
10 -10 14 -8 3 -15 12 -15 21 0 8 -5 15 -11 15 -5 0 -8 4 -4 9 3 5 1 12 -5 16
-6 4 -8 11 -5 16 4 5 1 9 -5 9 -7 0 -10 7 -6 15 3 8 -1 20 -8 27 -7 8 -12 21
-10 31 1 9 -2 19 -7 23 -5 3 -7 9 -4 14 3 5 1 19 -6 31 -9 17 -8 20 3 13 10
-6 11 -4 2 7 -5 8 -10 32 -10 54 1 22 -3 43 -9 47 -6 5 -5 8 3 8 6 0 12 6 12
13 0 8 11 19 25 25 14 6 25 16 25 22 0 6 -4 9 -8 6 -5 -3 -14 11 -21 30 -7 19
-17 32 -22 29 -5 -4 -9 3 -9 14 0 12 -5 21 -11 21 -5 0 -8 4 -5 9 3 4 -1 17
-9 27 -8 10 -15 27 -15 37 0 9 -4 17 -10 17 -5 0 -7 7 -4 15 4 8 2 15 -4 15
-6 0 -9 8 -7 18 1 9 -2 26 -8 37 -6 11 -10 30 -8 43 1 12 -1 22 -6 22 -5 0 -8
17 -8 38 0 20 -4 40 -10 44 -6 5 -5 8 4 8 11 0 11 3 1 15 -10 12 -10 15 1 15
10 0 10 3 1 12 -6 6 -8 17 -3 27 10 19 1 45 -16 49 -7 1 -19 3 -25 5 -7 1 -16
7 -20 12 -5 6 -12 5 -17 -5 -9 -12 -11 -12 -16 2 -4 10 -15 15 -26 13 -10 -2
-24 2 -31 9 -16 16 -30 17 -45 4 -9 -7 -14 -6 -18 4 -3 8 -11 15 -18 16 -44 6
-77 16 -77 24 0 5 -5 6 -10 3 -6 -4 -17 -1 -25 5 -12 10 -15 10 -15 -1 0 -11
-2 -11 -8 -1 -5 7 -22 15 -38 18 -42 8 -46 10 -79 24 -16 7 -43 15 -60 17 -16
3 -32 9 -35 14 -4 5 -18 10 -33 11 -15 1 -27 5 -27 8 0 3 -12 7 -27 8 -16 1
-29 7 -31 12 -2 6 -15 10 -28 10 -13 0 -24 5 -24 11 0 9 -4 9 -13 0 -11 -8
-18 -7 -30 7 -9 10 -28 19 -42 20 -14 1 -40 10 -58 19 -18 9 -43 19 -57 21
-14 2 -26 7 -28 13 -2 5 -12 9 -22 9 -10 0 -22 5 -25 10 -4 7 -13 6 -27 -1
-15 -8 -19 -8 -14 0 4 6 2 11 -4 11 -6 0 -8 5 -4 12 5 8 2 9 -9 5 -10 -3 -17
-3 -17 2 0 4 -10 7 -22 6 -12 -1 -30 7 -41 18 -11 11 -27 17 -38 14 -10 -3
-22 -1 -25 4 -3 5 -9 7 -14 4 -5 -3 -11 3 -14 13 -5 13 -15 19 -34 18 -17 -1
-26 4 -25 12 3 10 -31 18 -59 13 -5 0 -8 4 -8 10 0 5 -4 8 -9 5 -5 -3 -11 1
-15 9 -3 8 -17 15 -32 15 -15 0 -32 7 -38 16 -6 8 -27 17 -46 20 -19 3 -39 7
-45 7 -5 1 -15 11 -22 22 -6 11 -14 19 -17 18 -15 -7 -36 -2 -31 7 6 10 -7 14
-32 11 -7 -1 -13 3 -13 9 0 6 -5 8 -11 4 -7 -4 -20 4 -30 17 -10 13 -19 18
-19 11 0 -9 -11 -4 -31 12 -18 15 -43 26 -60 26 -18 0 -28 4 -24 10 3 6 1 10
-5 10 -6 0 -8 5 -4 13 5 8 2 8 -9 -2 -9 -7 -18 -10 -18 -5 -8 52 -3 61 33 65
4 0 22 5 40 10 34 11 65 16 157 23 29 3 56 7 59 10 3 3 11 1 18 -5 9 -7 19 -7
33 0 14 8 22 8 26 1 5 -8 11 -7 20 0 8 7 20 8 27 4 13 -8 87 -15 183 -18 28 0
52 -4 55 -7 3 -4 21 -8 40 -10 19 -2 41 -8 49 -13 12 -9 13 -8 6 4 -8 13 -6
13 8 1 9 -7 23 -11 31 -8 8 3 17 1 20 -6 2 -7 5 -4 5 6 1 10 -6 17 -18 17 -11
0 -22 9 -26 19 -4 13 -13 18 -31 16 -16 -1 -30 5 -39 19 -8 11 -15 17 -15 12
0 -5 -8 -2 -17 5 -15 12 -16 12 -8 -1 8 -13 7 -13 -8 -1 -9 7 -17 10 -17 6 0
-4 -11 0 -25 9 -13 9 -33 16 -45 16 -11 0 -20 4 -20 10 0 6 -9 6 -26 0 -19 -7
-23 -7 -18 2 5 7 2 9 -9 5 -9 -3 -18 0 -21 9 -3 9 -20 14 -48 14 -24 0 -54 7
-67 17 -18 12 -50 17 -136 18 -61 1 -116 5 -123 8 -6 4 -13 3 -17 -3 -4 -7
-12 -7 -26 0 -12 7 -19 7 -19 1 0 -6 -11 -6 -30 -1 -19 5 -30 5 -30 -1 0 -6
-8 -5 -20 1 -14 8 -20 8 -20 0 0 -8 -6 -8 -20 0 -15 8 -20 8 -20 -2 0 -9 -3
-9 -10 2 -9 13 -10 13 -10 0 0 -12 -2 -13 -9 -1 -7 10 -10 10 -13 1 -3 -10 -9
-10 -25 -1 -12 6 -24 8 -26 4z m53 -367 c0 3 7 1 15 -6 8 -6 19 -9 25 -5 5 3
10 -1 10 -9 0 -9 7 -16 15 -16 25 0 58 -37 58 -64 0 -14 4 -26 9 -26 5 0 5 -7
-1 -18 -5 -9 -8 -34 -7 -55 1 -20 -3 -37 -8 -37 -6 0 -5 -5 2 -12 15 -15 16
-31 0 -22 -7 4 -8 3 -4 -5 4 -7 4 -20 0 -29 -8 -20 -12 -392 -4 -392 6 0 11
-55 14 -155 1 -27 5 -55 9 -62 4 -6 3 -14 -3 -18 -5 -3 -10 -12 -10 -18 0 -7
4 -6 10 3 8 13 10 12 11 -5 1 -11 1 -28 0 -37 -1 -10 3 -26 9 -38 8 -15 8 -20
-2 -20 -9 0 -10 -3 -2 -8 6 -4 12 -36 13 -72 1 -38 7 -67 14 -72 7 -4 8 -8 4
-8 -5 0 -5 -6 0 -12 4 -7 8 -20 10 -28 1 -8 5 -31 9 -50 4 -19 7 -38 6 -42 -1
-5 2 -8 8 -8 5 0 7 -7 4 -15 -4 -8 -2 -15 4 -15 5 0 8 -10 8 -22 -1 -13 3 -29
8 -37 9 -12 8 -13 -4 -7 -9 4 -8 2 2 -7 10 -8 15 -17 11 -20 -3 -4 -2 -7 3 -7
5 0 10 -10 11 -22 1 -11 7 -24 13 -28 7 -4 11 -10 10 -14 -4 -13 24 -96 32
-96 4 0 8 -6 8 -14 0 -20 26 -67 33 -60 3 3 3 -3 0 -15 -5 -20 19 -56 30 -45
3 3 3 -3 0 -15 -3 -12 -1 -21 5 -21 5 0 12 -10 16 -22 3 -13 12 -32 20 -43 9
-11 38 -54 65 -95 27 -41 59 -85 70 -97 12 -12 21 -27 21 -33 0 -5 5 -10 10
-10 6 0 10 -7 10 -16 0 -8 5 -12 10 -9 6 3 10 2 10 -3 0 -5 18 -28 40 -51 22
-23 37 -47 34 -53 -4 -6 -3 -8 3 -5 6 4 30 -13 55 -36 51 -48 98 -88 183 -153
33 -25 62 -49 65 -52 3 -4 12 -8 20 -10 8 -2 24 -12 36 -23 11 -10 27 -19 36
-19 8 0 23 -9 33 -20 10 -11 22 -17 26 -14 5 3 12 -2 15 -10 3 -9 10 -13 15
-10 5 3 9 0 9 -6 0 -7 7 -10 15 -6 8 3 15 0 15 -6 0 -6 3 -8 7 -5 3 4 11 0 17
-9 6 -8 20 -16 30 -18 9 -1 22 -9 27 -17 5 -8 9 -10 9 -5 0 5 7 3 15 -4 8 -7
15 -9 15 -5 0 4 10 1 23 -7 12 -7 47 -23 77 -35 30 -11 71 -27 90 -34 19 -8
38 -13 43 -11 4 1 7 -3 7 -9 0 -5 4 -7 10 -4 6 3 10 2 10 -3 0 -6 8 -8 19 -5
10 3 22 0 25 -6 4 -6 18 -11 32 -11 13 0 24 -4 24 -8 0 -5 14 -9 31 -10 17 0
37 -6 45 -13 8 -6 14 -8 14 -5 0 4 10 1 22 -5 12 -7 37 -13 56 -14 35 -2 69
-26 59 -42 -7 -11 -31 -10 -67 2 -14 4 -45 9 -70 11 -78 6 -90 8 -90 14 0 3
-8 7 -17 8 -57 6 -82 10 -113 17 -19 5 -38 9 -42 9 -3 1 -10 4 -14 9 -4 4 -16
7 -27 7 -22 0 -81 17 -109 31 -10 5 -22 9 -28 9 -6 0 -27 7 -48 17 -20 9 -39
17 -42 17 -48 13 -60 18 -60 27 0 6 -4 8 -9 5 -5 -3 -30 5 -56 19 -27 13 -52
22 -56 20 -4 -3 -10 2 -13 11 -4 9 -9 14 -13 11 -3 -4 -18 2 -33 13 -16 11
-31 20 -34 20 -6 0 -86 51 -158 101 -15 11 -30 19 -33 19 -4 0 -13 6 -20 12
-8 7 -32 29 -55 48 -71 62 -167 158 -173 174 -4 9 -12 15 -19 14 -7 -2 -12 3
-10 10 1 7 -5 15 -13 18 -8 3 -12 10 -9 15 3 5 -2 9 -10 9 -9 0 -18 11 -22 25
-3 14 -10 22 -15 19 -5 -3 -9 2 -9 10 0 8 -9 20 -20 26 -11 6 -18 14 -16 19 3
4 -6 19 -20 34 -13 14 -24 29 -24 32 0 4 -7 13 -15 22 -8 8 -13 19 -10 24 4 5
1 9 -4 9 -6 0 -11 7 -11 15 0 8 -4 15 -10 15 -5 0 -10 6 -10 13 0 6 -18 41
-40 77 -22 36 -40 73 -40 83 0 10 -4 15 -10 12 -6 -4 -10 5 -10 19 0 14 -5 26
-10 26 -6 0 -9 6 -8 13 2 6 -1 11 -7 10 -5 -1 -11 10 -12 24 0 14 -6 35 -11
47 -16 34 -25 60 -24 69 1 4 -7 26 -19 48 -11 23 -18 50 -16 60 3 11 1 19 -3
19 -13 0 -29 52 -32 103 0 15 -5 30 -10 33 -4 3 -8 16 -8 30 0 13 -4 24 -8 24
-4 0 -9 24 -10 53 -1 29 -8 70 -17 90 -8 20 -13 37 -10 37 4 0 3 6 -2 12 -4 7
-9 26 -10 43 -6 64 -12 110 -14 115 -1 3 -1 9 0 14 1 4 -6 20 -15 33 -9 14
-12 23 -6 19 6 -4 9 14 7 47 -2 28 -4 52 -5 52 -1 0 -3 10 -4 23 -2 12 0 22 3
22 9 0 5 65 -4 80 -5 7 -10 63 -11 124 -2 61 -5 146 -8 189 -2 42 -1 77 2 77
4 0 7 42 7 93 0 101 14 134 48 116 9 -6 17 -7 17 -3z"/>
<path d="M3027 2863 c-8 -14 -5 -63 4 -57 5 3 6 -2 3 -10 -3 -9 -11 -13 -18
-10 -6 3 -4 0 4 -8 8 -7 15 -28 15 -45 -1 -18 2 -33 5 -33 3 0 7 -14 8 -32 2
-17 7 -38 13 -45 6 -7 9 -22 6 -33 -3 -11 -1 -18 4 -15 4 3 11 -6 15 -21 10
-39 49 -105 58 -97 4 4 4 0 1 -9 -4 -10 2 -22 17 -32 12 -9 18 -16 13 -16 -6
0 -2 -5 8 -11 9 -6 14 -15 11 -21 -4 -6 -3 -9 2 -6 9 6 36 -16 30 -23 -1 -2 6
-12 16 -21 10 -10 18 -16 18 -13 0 6 27 -18 78 -68 12 -12 22 -18 22 -13 0 5
8 -1 19 -12 10 -12 23 -22 30 -22 6 0 11 -4 11 -10 0 -5 6 -10 13 -10 7 0 19
-6 26 -12 6 -7 17 -13 24 -13 7 -1 11 -7 9 -15 -2 -11 0 -11 11 -1 12 9 16 8
21 -6 9 -24 26 1 19 28 -3 12 0 19 8 19 11 0 11 2 -1 10 -8 5 -10 10 -5 10 6
0 9 19 9 42 -1 24 3 49 8 56 6 6 6 12 1 12 -5 0 -10 15 -11 32 -2 18 -7 37
-12 42 -6 6 -10 17 -10 26 0 9 -9 26 -20 38 -12 12 -18 22 -15 22 4 0 0 7 -7
15 -31 34 -38 45 -31 45 4 0 0 5 -9 11 -10 5 -18 17 -18 25 0 8 -4 12 -10 9
-5 -3 -10 1 -10 9 0 9 -7 16 -16 16 -8 0 -13 4 -9 9 3 5 -4 12 -15 16 -11 3
-20 12 -20 19 0 7 -12 18 -26 24 -15 7 -22 17 -18 24 4 6 3 8 -3 5 -6 -4 -16
0 -23 8 -7 8 -17 12 -23 8 -5 -3 -7 -2 -4 4 3 5 -3 17 -14 26 -10 9 -19 14
-19 12 0 -3 -10 3 -22 15 -12 11 -28 20 -35 20 -7 0 -13 4 -13 8 0 5 -18 17
-40 28 -22 10 -40 22 -40 27 0 4 -9 7 -21 7 -11 0 -17 5 -14 10 3 6 4 10 1 10
-3 0 -7 -3 -9 -7z"/>
<path d="M3516 2532 c5 -4 18 -24 27 -44 20 -42 32 -48 40 -18 3 11 1 20 -5
20 -5 0 -6 5 -3 10 3 6 0 10 -8 10 -8 0 -20 7 -27 15 -7 8 -18 15 -24 15 -7 0
-8 -3 0 -8z"/>
<path d="M3130 2285 c-3 -26 -3 -23 4 -70 8 -64 18 -109 26 -120 3 -5 12 -29
20 -52 7 -24 17 -43 22 -43 4 0 8 -6 8 -13 0 -21 123 -157 142 -157 5 0 6 -4
3 -10 -3 -5 1 -10 11 -10 9 0 24 -8 33 -17 9 -10 36 -29 61 -42 25 -14 48 -29
53 -35 8 -12 29 13 21 25 -2 4 0 10 4 13 5 3 8 33 6 66 -4 68 -44 162 -94 220
-56 65 -80 90 -80 84 0 -9 -26 20 -33 36 -3 10 -6 11 -6 2 -1 -7 -16 2 -34 20
-18 18 -39 34 -47 36 -7 2 -22 12 -31 23 -10 11 -21 21 -26 21 -20 1 -51 18
-56 30 -3 8 -6 5 -7 -7z"/>
<path d="M3508 2074 c-6 -5 20 -64 28 -64 3 0 2 5 -1 10 -4 6 -1 18 6 26 11
13 10 15 -7 12 -11 -2 -18 2 -16 10 2 13 -1 15 -10 6z"/>
</g>
</svg>
